<svg width="213" height="71" viewBox="0 0 213 71" fill="none" xmlns="http://www.w3.org/2000/svg">
<path d="M0.421875 12.6799C0.421875 6.05251 5.79446 0.679932 12.4219 0.679932H201.002C207.629 0.679932 213.002 6.05252 213.002 12.6799V58.5099C213.002 65.1374 207.629 70.5099 201.002 70.5099H12.4219C5.79445 70.5099 0.421875 65.1374 0.421875 58.5099V12.6799Z" fill="white"/>
<path d="M70.8717 19.6372C71.218 18.8475 72.338 18.8475 72.6843 19.6372L73.9009 22.4113C74.041 22.7308 74.3388 22.9529 74.6848 22.996L77.6505 23.3659C78.4743 23.4686 78.8132 24.4791 78.218 25.058L75.9597 27.2546C75.7216 27.4862 75.6155 27.8218 75.6772 28.1482L76.2664 31.267C76.4243 32.1028 75.5247 32.7355 74.7919 32.3041L72.28 30.8252C71.9702 30.6428 71.5858 30.6428 71.276 30.8252L68.7641 32.3041C68.0314 32.7355 67.1318 32.1028 67.2896 31.267L67.8789 28.1482C67.9405 27.8218 67.8344 27.4862 67.5963 27.2546L65.338 25.058C64.7429 24.4791 65.0818 23.4686 65.9056 23.3659L68.8712 22.996C69.2172 22.9529 69.515 22.7308 69.6551 22.4114L70.8717 19.6372Z" fill="#5ECE7B"/>
<path d="M90.6664 19.6372C91.0128 18.8475 92.1327 18.8475 92.479 19.6372L93.6955 22.4113C93.8357 22.7307 94.1335 22.9529 94.4795 22.996L97.4452 23.3658C98.269 23.4686 98.6079 24.4791 98.0127 25.058L95.7544 27.2546C95.5163 27.4862 95.4102 27.8218 95.4718 28.1482L96.0611 31.267C96.219 32.1028 95.3194 32.7355 94.5867 32.304L92.0747 30.8252C91.765 30.6428 91.3806 30.6428 91.0708 30.8252L88.5589 32.304C87.8261 32.7355 86.9265 32.1028 87.0844 31.267L87.6736 28.1482C87.7352 27.8218 87.6291 27.4862 87.391 27.2546L85.1327 25.058C84.5375 24.4791 84.8764 23.4686 85.7002 23.3658L88.6659 22.996C89.0119 22.9529 89.3097 22.7307 89.4499 22.4113L90.6664 19.6372Z" fill="#5ECE7B"/>
<path d="M110.46 19.6372C110.806 18.8475 111.926 18.8475 112.272 19.6372L113.489 22.4114C113.629 22.7308 113.927 22.9529 114.273 22.9961L117.238 23.3659C118.062 23.4686 118.401 24.4791 117.806 25.0581L115.548 27.2546C115.31 27.4862 115.204 27.8219 115.265 28.1483L115.854 31.2671C116.012 32.1028 115.113 32.7355 114.38 32.3041L111.868 30.8252C111.558 30.6429 111.174 30.6429 110.864 30.8252L108.352 32.3041C107.619 32.7355 106.72 32.1028 106.878 31.2671L107.467 28.1483C107.529 27.8219 107.422 27.4862 107.184 27.2546L104.926 25.0581C104.331 24.4792 104.67 23.4686 105.493 23.3659L108.459 22.9961C108.805 22.9529 109.103 22.7308 109.243 22.4114L110.46 19.6372Z" fill="#5ECE7B"/>
<path d="M130.255 19.6372C130.601 18.8475 131.721 18.8475 132.067 19.6373L133.284 22.4113C133.424 22.7307 133.721 22.9529 134.067 22.996L137.033 23.3659C137.857 23.4686 138.196 24.4791 137.601 25.058L135.343 27.2546C135.105 27.4862 134.999 27.8217 135.06 28.1481L135.649 31.267C135.807 32.1028 134.907 32.7355 134.175 32.304L131.663 30.8252C131.353 30.6428 130.969 30.6428 130.659 30.8252L128.147 32.304C127.414 32.7355 126.514 32.1027 126.672 31.2669L127.262 28.1483C127.324 27.8218 127.218 27.4862 126.979 27.2545L124.721 25.058C124.126 24.4791 124.465 23.4686 125.288 23.3658L128.254 22.996C128.6 22.9528 128.898 22.7308 129.038 22.4114L130.255 19.6372Z" fill="#5ECE7B"/>
<path d="M150.048 19.6374C150.394 18.8477 151.514 18.8478 151.86 19.6376L153.076 22.4112C153.216 22.7307 153.514 22.9529 153.86 22.996L156.826 23.3659C157.65 23.4686 157.989 24.4791 157.394 25.058L155.136 27.2546C154.898 27.4862 154.791 27.8218 154.853 28.1482L155.442 31.267C155.6 32.1028 154.701 32.7355 153.968 32.3041L151.456 30.8252C151.146 30.6428 150.762 30.6428 150.452 30.8252L147.94 32.3041C147.207 32.7355 146.307 32.1027 146.465 31.2669L147.055 28.1483C147.117 27.8218 147.011 27.4862 146.772 27.2546L144.514 25.0581C143.919 24.4792 144.258 23.4686 145.081 23.3659L148.047 22.996C148.393 22.9529 148.691 22.7308 148.831 22.4114L150.048 19.6374Z" fill="#5ECE7B"/>
<path d="M63.9254 48.7809V41.5082H65.6832V44.4272H68.549V41.5082H70.3033V48.7809H68.549V45.8583H65.6832V48.7809H63.9254ZM73.7121 48.8839C73.1391 48.8839 72.6467 48.7667 72.2348 48.5323C71.8252 48.2956 71.5092 47.9665 71.2866 47.5451C71.0665 47.1213 70.9564 46.6301 70.9564 46.0714C70.9564 45.5103 71.0665 45.019 71.2866 44.5976C71.5092 44.1739 71.8252 43.8448 72.2348 43.6104C72.6467 43.3737 73.1391 43.2553 73.7121 43.2553C74.285 43.2553 74.7762 43.3737 75.1858 43.6104C75.5977 43.8448 75.9138 44.1739 76.1339 44.5976C76.3565 45.019 76.4677 45.5103 76.4677 46.0714C76.4677 46.6301 76.3565 47.1213 76.1339 47.5451C75.9138 47.9665 75.5977 48.2956 75.1858 48.5323C74.7762 48.7667 74.285 48.8839 73.7121 48.8839ZM73.7227 47.5735C73.931 47.5735 74.1074 47.5096 74.2518 47.3817C74.3962 47.2539 74.5063 47.0763 74.5821 46.8491C74.6602 46.6218 74.6993 46.359 74.6993 46.0607C74.6993 45.7577 74.6602 45.4925 74.5821 45.2653C74.5063 45.038 74.3962 44.8604 74.2518 44.7326C74.1074 44.6047 73.931 44.5408 73.7227 44.5408C73.5073 44.5408 73.325 44.6047 73.1758 44.7326C73.0291 44.8604 72.9166 45.038 72.8385 45.2653C72.7627 45.4925 72.7248 45.7577 72.7248 46.0607C72.7248 46.359 72.7627 46.6218 72.8385 46.8491C72.9166 47.0763 73.0291 47.2539 73.1758 47.3817C73.325 47.5096 73.5073 47.5735 73.7227 47.5735ZM78.8538 45.6701V48.7809H77.1173V43.3263H78.7686V44.3278H78.8289C78.9497 43.994 79.1557 43.7324 79.4468 43.543C79.738 43.3512 80.0849 43.2553 80.4873 43.2553C80.8709 43.2553 81.2035 43.3417 81.4852 43.5145C81.7693 43.685 81.9895 43.9241 82.1457 44.2319C82.3043 44.5373 82.3825 44.8948 82.3801 45.3043V48.7809H80.6436V45.6452C80.6459 45.3422 80.569 45.1055 80.4128 44.935C80.2589 44.7645 80.0446 44.6793 79.77 44.6793C79.5877 44.6793 79.4267 44.7196 79.287 44.8001C79.1497 44.8782 79.0432 44.9906 78.9674 45.1374C78.8941 45.2842 78.8562 45.4618 78.8538 45.6701ZM85.7614 48.8839C85.1884 48.8839 84.696 48.7667 84.2841 48.5323C83.8745 48.2956 83.5585 47.9665 83.3359 47.5451C83.1158 47.1213 83.0057 46.6301 83.0057 46.0714C83.0057 45.5103 83.1158 45.019 83.3359 44.5976C83.5585 44.1739 83.8745 43.8448 84.2841 43.6104C84.696 43.3737 85.1884 43.2553 85.7614 43.2553C86.3343 43.2553 86.8255 43.3737 87.2351 43.6104C87.647 43.8448 87.9631 44.1739 88.1832 44.5976C88.4058 45.019 88.517 45.5103 88.517 46.0714C88.517 46.6301 88.4058 47.1213 88.1832 47.5451C87.9631 47.9665 87.647 48.2956 87.2351 48.5323C86.8255 48.7667 86.3343 48.8839 85.7614 48.8839ZM85.772 47.5735C85.9803 47.5735 86.1567 47.5096 86.3011 47.3817C86.4455 47.2539 86.5556 47.0763 86.6314 46.8491C86.7095 46.6218 86.7486 46.359 86.7486 46.0607C86.7486 45.7577 86.7095 45.4925 86.6314 45.2653C86.5556 45.038 86.4455 44.8604 86.3011 44.7326C86.1567 44.6047 85.9803 44.5408 85.772 44.5408C85.5566 44.5408 85.3743 44.6047 85.2251 44.7326C85.0784 44.8604 84.9659 45.038 84.8878 45.2653C84.812 45.4925 84.7741 45.7577 84.7741 46.0607C84.7741 46.359 84.812 46.6218 84.8878 46.8491C84.9659 47.0763 85.0784 47.2539 85.2251 47.3817C85.3743 47.5096 85.5566 47.5735 85.772 47.5735ZM89.1666 48.7809V43.3263H90.8534V44.3207H90.9102C91.0096 43.9608 91.1718 43.6933 91.3967 43.5181C91.6216 43.3405 91.8832 43.2518 92.1815 43.2518C92.262 43.2518 92.3449 43.2577 92.4301 43.2695C92.5153 43.279 92.5946 43.2944 92.668 43.3157V44.8249C92.5852 44.7965 92.4763 44.774 92.3413 44.7574C92.2087 44.7409 92.0904 44.7326 91.9862 44.7326C91.7802 44.7326 91.5944 44.7788 91.4287 44.8711C91.2653 44.961 91.1363 45.0877 91.0416 45.2511C90.9493 45.412 90.9031 45.6014 90.9031 45.8192V48.7809H89.1666ZM95.4021 48.8839C94.8315 48.8839 94.3391 48.7714 93.9248 48.5465C93.5129 48.3192 93.1957 47.9961 92.9731 47.577C92.7529 47.1556 92.6429 46.6549 92.6429 46.0749C92.6429 45.5115 92.7541 45.019 92.9767 44.5976C93.1992 44.1739 93.5129 43.8448 93.9177 43.6104C94.3225 43.3737 94.7996 43.2553 95.3488 43.2553C95.7371 43.2553 96.0922 43.3157 96.4142 43.4364C96.7361 43.5572 97.0143 43.7359 97.2487 43.9726C97.4831 44.2094 97.6654 44.5018 97.7956 44.8498C97.9258 45.1954 97.9909 45.592 97.9909 46.0394V46.4726H93.2501V45.4641H96.3751C96.3727 45.2795 96.3289 45.1149 96.2437 44.9705C96.1585 44.8261 96.0413 44.7136 95.8922 44.6332C95.7454 44.5503 95.5761 44.5089 95.3843 44.5089C95.1902 44.5089 95.0162 44.5527 94.8623 44.6403C94.7084 44.7255 94.5865 44.8427 94.4966 44.9918C94.4066 45.1386 94.3592 45.3055 94.3545 45.4925V46.5188C94.3545 46.7413 94.3983 46.9367 94.4859 47.1047C94.5735 47.2705 94.6978 47.3995 94.8588 47.4918C95.0198 47.5842 95.2115 47.6303 95.4341 47.6303C95.5879 47.6303 95.7276 47.609 95.8531 47.5664C95.9786 47.5238 96.0863 47.461 96.1762 47.3782C96.2662 47.2953 96.3337 47.1935 96.3787 47.0728L97.9731 47.119C97.9068 47.4764 97.7612 47.7877 97.5363 48.0529C97.3138 48.3157 97.0214 48.5205 96.6592 48.6672C96.297 48.8117 95.8779 48.8839 95.4021 48.8839ZM100.63 48.859C100.227 48.859 99.8617 48.7548 99.5327 48.5465C99.2036 48.3382 98.9408 48.0257 98.7443 47.609C98.5478 47.1923 98.4496 46.6751 98.4496 46.0572C98.4496 45.4156 98.5514 44.8877 98.755 44.4734C98.9586 44.0591 99.2249 43.7525 99.554 43.5536C99.8854 43.3547 100.242 43.2553 100.623 43.2553C100.909 43.2553 101.154 43.305 101.358 43.4045C101.562 43.5015 101.73 43.627 101.862 43.7809C101.995 43.9348 102.095 44.0946 102.164 44.2603H102.2V41.5082H103.936V48.7809H102.217V47.8967H102.164C102.091 48.0647 101.986 48.2222 101.852 48.369C101.717 48.5157 101.547 48.6341 101.344 48.7241C101.143 48.814 100.905 48.859 100.63 48.859ZM101.234 47.506C101.444 47.506 101.624 47.4468 101.773 47.3285C101.923 47.2077 102.037 47.0385 102.118 46.8207C102.198 46.6029 102.239 46.3472 102.239 46.0536C102.239 45.7553 102.198 45.4985 102.118 45.283C102.04 45.0676 101.925 44.9019 101.773 44.7859C101.624 44.6699 101.444 44.6118 101.234 44.6118C101.018 44.6118 100.836 44.671 100.687 44.7894C100.538 44.9078 100.424 45.0747 100.346 45.2901C100.27 45.5056 100.232 45.7601 100.232 46.0536C100.232 46.3472 100.271 46.6029 100.349 46.8207C100.428 47.0385 100.54 47.2077 100.687 47.3285C100.836 47.4468 101.018 47.506 101.234 47.506ZM106.703 48.7809V41.5082H108.439V44.2603H108.475C108.546 44.0946 108.646 43.9348 108.777 43.7809C108.909 43.627 109.077 43.5015 109.281 43.4045C109.487 43.305 109.733 43.2553 110.019 43.2553C110.398 43.2553 110.752 43.3547 111.081 43.5536C111.413 43.7525 111.68 44.0591 111.884 44.4734C112.087 44.8877 112.189 45.4156 112.189 46.0572C112.189 46.6751 112.091 47.1923 111.894 47.609C111.7 48.0257 111.438 48.3382 111.106 48.5465C110.777 48.7548 110.411 48.859 110.009 48.859C109.734 48.859 109.496 48.814 109.295 48.7241C109.094 48.6341 108.925 48.5157 108.787 48.369C108.652 48.2222 108.548 48.0647 108.475 47.8967H108.421V48.7809H106.703ZM108.404 46.0536C108.404 46.3472 108.443 46.6029 108.521 46.8207C108.601 47.0385 108.716 47.2077 108.865 47.3285C109.017 47.4468 109.198 47.506 109.409 47.506C109.622 47.506 109.803 47.4468 109.952 47.3285C110.101 47.2077 110.214 47.0385 110.289 46.8207C110.367 46.6029 110.407 46.3472 110.407 46.0536C110.407 45.7601 110.367 45.5056 110.289 45.2901C110.214 45.0747 110.101 44.9078 109.952 44.7894C109.805 44.671 109.624 44.6118 109.409 44.6118C109.196 44.6118 109.014 44.6699 108.865 44.7859C108.716 44.9019 108.601 45.0676 108.521 45.283C108.443 45.4985 108.404 45.7553 108.404 46.0536ZM113.745 50.8263C113.537 50.8263 113.34 50.8098 113.156 50.7766C112.971 50.7458 112.812 50.7044 112.68 50.6523L113.063 49.3917C113.234 49.4485 113.388 49.4816 113.525 49.4911C113.665 49.5006 113.784 49.4781 113.884 49.4236C113.985 49.3716 114.064 49.278 114.118 49.1431L114.186 48.9797L112.247 43.3263H114.065L115.07 47.2184H115.127L116.146 43.3263H117.975L115.918 49.3029C115.819 49.6012 115.678 49.864 115.496 50.0913C115.316 50.3209 115.083 50.5008 114.796 50.631C114.512 50.7612 114.162 50.8263 113.745 50.8263ZM122.052 48.7809L119.936 41.5082H121.878L122.976 46.2738H123.036L124.29 41.5082H125.873L127.127 46.2844H127.187L128.288 41.5082H130.227L128.114 48.7809H126.42L125.11 44.3704H125.053L123.743 48.7809H122.052ZM130.713 48.7809V43.3263H132.45V48.7809H130.713ZM131.583 42.6907C131.34 42.6907 131.13 42.6102 130.955 42.4492C130.78 42.2859 130.692 42.0894 130.692 41.8597C130.692 41.6324 130.78 41.4383 130.955 41.2773C131.13 41.114 131.34 41.0323 131.583 41.0323C131.83 41.0323 132.039 41.114 132.212 41.2773C132.387 41.4383 132.475 41.6324 132.475 41.8597C132.475 42.0894 132.387 42.2859 132.212 42.4492C132.039 42.6102 131.83 42.6907 131.583 42.6907ZM135.052 41.5082V48.7809H133.315V41.5082H135.052ZM137.653 41.5082V48.7809H135.917V41.5082H137.653ZM138.519 48.7809V43.3263H140.255V48.7809H138.519ZM139.389 42.6907C139.145 42.6907 138.935 42.6102 138.76 42.4492C138.585 42.2859 138.497 42.0894 138.497 41.8597C138.497 41.6324 138.585 41.4383 138.76 41.2773C138.935 41.114 139.145 41.0323 139.389 41.0323C139.635 41.0323 139.845 41.114 140.017 41.2773C140.193 41.4383 140.28 41.6324 140.28 41.8597C140.28 42.0894 140.193 42.2859 140.017 42.4492C139.845 42.6102 139.635 42.6907 139.389 42.6907ZM142.658 48.8732C142.31 48.8732 142.001 48.8152 141.731 48.6992C141.464 48.5808 141.252 48.4033 141.096 48.1665C140.942 47.9274 140.865 47.6279 140.865 47.2681C140.865 46.9651 140.918 46.7094 141.025 46.5011C141.131 46.2927 141.278 46.1234 141.465 45.9932C141.652 45.863 141.868 45.7648 142.111 45.6985C142.355 45.6298 142.616 45.5837 142.893 45.56C143.203 45.5316 143.452 45.502 143.642 45.4712C143.831 45.4381 143.969 45.3919 144.054 45.3327C144.141 45.2712 144.185 45.1848 144.185 45.0735V45.0557C144.185 44.8734 144.122 44.7326 143.997 44.6332C143.872 44.5337 143.702 44.484 143.489 44.484C143.26 44.484 143.075 44.5337 142.935 44.6332C142.796 44.7326 142.707 44.8699 142.669 45.0451L141.067 44.9883C141.115 44.6568 141.237 44.3609 141.433 44.1005C141.632 43.8377 141.904 43.6317 142.25 43.4826C142.598 43.3311 143.016 43.2553 143.503 43.2553C143.851 43.2553 144.172 43.2967 144.466 43.3796C144.759 43.4601 145.015 43.5785 145.233 43.7347C145.451 43.8886 145.619 44.078 145.737 44.3029C145.858 44.5278 145.918 44.7847 145.918 45.0735V48.7809H144.285V48.0209H144.242C144.145 48.2056 144.021 48.3618 143.869 48.4897C143.72 48.6175 143.544 48.7134 143.34 48.7773C143.139 48.8413 142.912 48.8732 142.658 48.8732ZM143.194 47.7368C143.381 47.7368 143.55 47.699 143.699 47.6232C143.85 47.5475 143.971 47.4433 144.061 47.3107C144.151 47.1758 144.196 47.0195 144.196 46.842V46.3235C144.146 46.3495 144.086 46.3732 144.015 46.3945C143.946 46.4158 143.87 46.436 143.787 46.4549C143.705 46.4738 143.619 46.4904 143.532 46.5046C143.444 46.5188 143.36 46.5318 143.28 46.5437C143.116 46.5697 142.977 46.61 142.861 46.6644C142.747 46.7189 142.659 46.7899 142.598 46.8775C142.539 46.9627 142.509 47.0645 142.509 47.1829C142.509 47.3628 142.573 47.5001 142.701 47.5948C142.831 47.6895 142.996 47.7368 143.194 47.7368ZM146.74 48.7809V43.3263H148.391V44.3278H148.452C148.565 43.9963 148.757 43.7347 149.027 43.543C149.297 43.3512 149.619 43.2553 149.993 43.2553C150.372 43.2553 150.696 43.3524 150.966 43.5465C151.236 43.7406 151.407 44.0011 151.481 44.3278H151.538C151.639 44.0034 151.838 43.7442 152.134 43.5501C152.43 43.3536 152.779 43.2553 153.182 43.2553C153.698 43.2553 154.117 43.421 154.439 43.7525C154.761 44.0815 154.922 44.5337 154.922 45.109V48.7809H153.185V45.5067C153.185 45.2345 153.115 45.0273 152.976 44.8853C152.836 44.7409 152.655 44.6687 152.432 44.6687C152.193 44.6687 152.005 44.7468 151.868 44.903C151.733 45.0569 151.665 45.2641 151.665 45.5245V48.7809H149.996V45.489C149.996 45.2357 149.928 45.0356 149.79 44.8888C149.653 44.7421 149.472 44.6687 149.247 44.6687C149.096 44.6687 148.962 44.7054 148.846 44.7788C148.73 44.8498 148.639 44.9516 148.572 45.0842C148.508 45.2167 148.476 45.373 148.476 45.5529V48.7809H146.74ZM159.953 48.891C159.442 48.891 159 48.7998 158.629 48.6175C158.259 48.4352 157.975 48.1902 157.776 47.8824C157.577 47.5723 157.478 47.2279 157.478 46.8491C157.478 46.5697 157.532 46.3235 157.641 46.1104C157.753 45.895 157.905 45.6973 158.099 45.5174C158.296 45.3351 158.524 45.1564 158.785 44.9812L160.312 44.0046C160.485 43.8957 160.607 43.7809 160.678 43.6601C160.751 43.5394 160.788 43.4187 160.788 43.2979C160.788 43.1677 160.737 43.0493 160.635 42.9428C160.536 42.8363 160.388 42.7842 160.191 42.7866C160.066 42.7866 159.957 42.8126 159.864 42.8647C159.772 42.9168 159.7 42.9866 159.648 43.0742C159.598 43.1618 159.573 43.2612 159.573 43.3725C159.573 43.5169 159.615 43.6649 159.697 43.8164C159.78 43.9679 159.892 44.1289 160.031 44.2993C160.173 44.4698 160.331 44.658 160.504 44.864L163.987 48.7809H162.219L159.303 45.6168C159.138 45.4322 158.964 45.225 158.781 44.9954C158.599 44.7657 158.445 44.5148 158.32 44.2425C158.194 43.9679 158.131 43.6696 158.131 43.3476C158.131 42.9854 158.217 42.6575 158.387 42.364C158.558 42.0704 158.797 41.8372 159.104 41.6644C159.415 41.4892 159.776 41.4016 160.188 41.4016C160.585 41.4016 160.929 41.4833 161.217 41.6467C161.506 41.81 161.729 42.0266 161.885 42.2965C162.041 42.5664 162.119 42.8623 162.119 43.1843C162.119 43.5252 162.035 43.8389 161.867 44.1253C161.699 44.4094 161.461 44.6616 161.153 44.8817L159.658 45.9506C159.5 46.0643 159.375 46.1862 159.286 46.3164C159.196 46.4442 159.151 46.5839 159.151 46.7354C159.151 46.8917 159.187 47.0278 159.261 47.1438C159.336 47.2598 159.443 47.351 159.58 47.4172C159.718 47.4835 159.879 47.5167 160.063 47.5167C160.309 47.5167 160.556 47.4587 160.802 47.3427C161.048 47.2243 161.273 47.0586 161.477 46.8455C161.68 46.6301 161.844 46.3756 161.967 46.082C162.09 45.7861 162.151 45.4618 162.151 45.109H163.55C163.55 45.5446 163.504 45.9494 163.412 46.3235C163.32 46.6952 163.181 47.029 162.996 47.3249C162.814 47.6185 162.588 47.8623 162.318 48.0565C162.233 48.1038 162.15 48.1488 162.07 48.1914C161.989 48.234 161.906 48.279 161.821 48.3263C161.542 48.5276 161.239 48.672 160.912 48.7596C160.588 48.8472 160.268 48.891 159.953 48.891ZM166.19 41.5082H168.367L170.214 46.011H170.299L172.145 41.5082H174.322V48.7809H172.611V44.3136H172.55L170.803 48.7347H169.709L167.962 44.2887H167.902V48.7809H166.19V41.5082ZM176.716 48.8732C176.368 48.8732 176.059 48.8152 175.789 48.6992C175.522 48.5808 175.31 48.4033 175.154 48.1665C175 47.9274 174.923 47.6279 174.923 47.2681C174.923 46.9651 174.976 46.7094 175.083 46.5011C175.189 46.2927 175.336 46.1234 175.523 45.9932C175.71 45.863 175.926 45.7648 176.169 45.6985C176.413 45.6298 176.674 45.5837 176.951 45.56C177.261 45.5316 177.511 45.502 177.7 45.4712C177.889 45.4381 178.027 45.3919 178.112 45.3327C178.199 45.2712 178.243 45.1848 178.243 45.0735V45.0557C178.243 44.8734 178.181 44.7326 178.055 44.6332C177.93 44.5337 177.76 44.484 177.547 44.484C177.318 44.484 177.133 44.5337 176.993 44.6332C176.854 44.7326 176.765 44.8699 176.727 45.0451L175.125 44.9883C175.173 44.6568 175.295 44.3609 175.491 44.1005C175.69 43.8377 175.962 43.6317 176.308 43.4826C176.656 43.3311 177.074 43.2553 177.561 43.2553C177.909 43.2553 178.23 43.2967 178.524 43.3796C178.817 43.4601 179.073 43.5785 179.291 43.7347C179.509 43.8886 179.677 44.078 179.795 44.3029C179.916 44.5278 179.976 44.7847 179.976 45.0735V48.7809H178.343V48.0209H178.3C178.203 48.2056 178.079 48.3618 177.927 48.4897C177.778 48.6175 177.602 48.7134 177.398 48.7773C177.197 48.8413 176.97 48.8732 176.716 48.8732ZM177.252 47.7368C177.44 47.7368 177.608 47.699 177.757 47.6232C177.908 47.5475 178.029 47.4433 178.119 47.3107C178.209 47.1758 178.254 47.0195 178.254 46.842V46.3235C178.204 46.3495 178.144 46.3732 178.073 46.3945C178.004 46.4158 177.928 46.436 177.846 46.4549C177.763 46.4738 177.677 46.4904 177.59 46.5046C177.502 46.5188 177.418 46.5318 177.338 46.5437C177.174 46.5697 177.035 46.61 176.919 46.6644C176.805 46.7189 176.717 46.7899 176.656 46.8775C176.597 46.9627 176.567 47.0645 176.567 47.1829C176.567 47.3628 176.631 47.5001 176.759 47.5948C176.889 47.6895 177.054 47.7368 177.252 47.7368ZM182.275 43.3263L183.174 45.1232L184.104 43.3263H185.855L184.331 46.0536L185.912 48.7809H184.175L183.174 46.9698L182.197 48.7809H180.436L182.02 46.0536L180.514 43.3263H182.275Z" fill="#8C9BAA"/>
<g clip-path="url(#clip0_12_857)">
<mask id="mask0_12_857" style="mask-type:luminance" maskUnits="userSpaceOnUse" x="12" y="11" width="42" height="49">
<path d="M53.9134 11.5022H12.4219V59.6859H53.9134V11.5022Z" fill="white"/>
</mask>
<g mask="url(#mask0_12_857)">
<path d="M15.9961 47.0085L33.4313 54.947L50.2045 47.0085V15.9656H15.9961V47.0085Z" fill="white"/>
<path d="M50.5592 16.0837L15.6445 47.5611L33.7419 55.5786L50.5592 47.877V16.0837Z" fill="#F2F3F2"/>
<path d="M14.8496 25.8767V47.2434L15.4676 47.5199L32.9028 55.4583L33.4325 55.6953L33.9622 55.4583L50.7795 47.5199L51.3974 47.2434V14.5022H14.8496V25.8767ZM15.9972 46.651V15.5291H50.2498V46.651L33.4325 54.5895L15.9972 46.651Z" fill="#DCDEDC"/>
<path d="M33.1222 16.4785C33.2987 16.4785 33.4753 16.4785 33.6519 16.518L33.1222 17.4264C32.3276 17.3869 31.6215 17.9398 31.5773 18.6507C31.5332 19.3617 32.1511 19.9936 32.9456 20.0331H33.1222C33.4753 20.0331 33.8284 19.9146 34.0933 19.7171L34.6671 20.586C34.2257 20.8625 33.696 21.0204 33.1222 21.0204C31.7097 21.0599 30.518 20.1121 30.4738 18.8482C30.4297 17.5844 31.489 16.518 32.9015 16.4785H33.1222ZM34.9319 18.4138L35.594 19.4012L34.9319 20.349L34.3139 19.4012H33.0339L33.696 18.4138H34.9319ZM33.8725 18.0583C33.8725 17.9003 33.9167 17.7424 34.005 17.6239C34.0933 17.5054 34.2699 17.3869 34.4022 17.3079L34.4905 17.2684C34.6671 17.1894 34.7113 17.1499 34.7113 17.071C34.7113 16.992 34.5788 16.913 34.4905 16.913C34.3139 16.913 34.1816 16.992 34.0933 17.1499L33.8725 16.9525C33.9167 16.8735 34.005 16.7945 34.0933 16.7155C34.2257 16.6365 34.3581 16.6365 34.4905 16.6365C34.623 16.6365 34.7994 16.676 34.8877 16.755C34.976 16.834 35.0643 16.9525 35.0643 17.071C35.0643 17.2684 34.9319 17.4264 34.6671 17.5054L34.5347 17.5844C34.4022 17.6634 34.3139 17.7029 34.2699 17.8214H35.0643V18.0978L33.8725 18.0583ZM33.1222 22.9952L37.3155 20.8625V14.9382H28.8848V20.823L33.1222 22.9952Z" fill="#5ECE7B"/>
<path d="M52.2353 36.9758H14.0101L12.5977 39.7405L14.0101 42.5051H52.2353L53.6037 39.7405L52.2353 36.9758Z" fill="#5ECE7B"/>
<path d="M19.8665 31.0471C20.1578 31.0471 20.4138 31.0998 20.6345 31.2052C20.8552 31.3105 21.0259 31.4618 21.1466 31.6593C21.2672 31.8542 21.3275 32.078 21.3275 32.3307C21.3275 32.5809 21.2657 32.8007 21.1421 32.9903C21.0156 33.1772 20.8391 33.3234 20.6125 33.4287C20.3859 33.534 20.124 33.5866 19.8268 33.5866H18.8866C18.866 33.5866 18.8557 33.5972 18.8557 33.6182V35.127C18.8557 35.148 18.8469 35.1652 18.8292 35.1783C18.8145 35.1915 18.7954 35.1981 18.7718 35.1981H17.9994C17.9758 35.1981 17.9567 35.1915 17.942 35.1783C17.9273 35.1652 17.9199 35.148 17.9199 35.127V31.1183C17.9199 31.0971 17.9273 31.0801 17.942 31.067C17.9567 31.0537 17.9758 31.0471 17.9994 31.0471H19.8665ZM19.7253 32.9192C19.9312 32.9192 20.0946 32.8666 20.2152 32.7613C20.3388 32.6559 20.4006 32.5191 20.4006 32.3505C20.4006 32.1741 20.3388 32.0332 20.2152 31.9279C20.0946 31.8199 19.9312 31.766 19.7253 31.766H18.8866C18.866 31.766 18.8557 31.7765 18.8557 31.7976V32.8876C18.8557 32.9087 18.866 32.9192 18.8866 32.9192H19.7253ZM24.8588 33.3616C24.8852 33.5116 24.894 33.6788 24.8852 33.8631C24.8823 33.9132 24.8544 33.9382 24.8013 33.9382H22.7532C22.7268 33.9382 22.7179 33.9474 22.7268 33.9659C22.7415 34.0448 22.765 34.1238 22.7974 34.2028C22.9151 34.424 23.149 34.5346 23.4992 34.5346C23.7846 34.5319 24.0083 34.4293 24.1702 34.2265C24.1878 34.2028 24.2069 34.1909 24.2275 34.1909C24.2422 34.1909 24.2585 34.1988 24.276 34.2146L24.7528 34.6333C24.7734 34.6543 24.7836 34.6728 24.7836 34.6886C24.7836 34.6965 24.7763 34.7123 24.7616 34.7359C24.6145 34.8992 24.4262 35.0243 24.1966 35.1112C23.9671 35.2007 23.7155 35.2455 23.4418 35.2455C23.0622 35.2455 22.7415 35.1691 22.4796 35.0164C22.2177 34.8611 22.0279 34.6452 21.9102 34.3687C21.819 34.1712 21.7733 33.9132 21.7733 33.5946C21.7733 33.376 21.8057 33.1838 21.8704 33.0179C21.9734 32.7388 22.1515 32.5164 22.4045 32.3505C22.6605 32.1846 22.9622 32.1017 23.3094 32.1017C23.7508 32.1017 24.1054 32.2163 24.3732 32.4453C24.6409 32.6744 24.8028 32.9798 24.8588 33.3616ZM23.3139 32.8244C23.0372 32.8244 22.8548 32.9403 22.7665 33.172C22.7488 33.2247 22.7326 33.2878 22.7179 33.3616C22.7179 33.38 22.7297 33.3892 22.7532 33.3892H23.8965C23.9229 33.3892 23.9333 33.38 23.9273 33.3616C23.9038 33.2484 23.8921 33.1931 23.8921 33.1957C23.8509 33.0772 23.7817 32.985 23.6846 32.9192C23.5845 32.856 23.461 32.8244 23.3139 32.8244ZM27.1584 32.1135C27.3143 32.1135 27.4395 32.1411 27.5336 32.1964C27.5689 32.2123 27.5822 32.2413 27.5733 32.2833L27.432 32.9587C27.4291 33.0061 27.3982 33.0206 27.3394 33.0022C27.2746 32.9811 27.1981 32.9706 27.1098 32.9706C27.0746 32.9706 27.026 32.9745 26.9642 32.9825C26.8053 32.9956 26.6699 33.0482 26.5581 33.1404C26.4493 33.2325 26.3948 33.3563 26.3948 33.5116V35.127C26.3948 35.148 26.3874 35.1652 26.3727 35.1783C26.3551 35.1915 26.336 35.1981 26.3153 35.1981H25.5429C25.5193 35.1981 25.5003 35.1915 25.4855 35.1783C25.4708 35.1652 25.4634 35.148 25.4634 35.127V32.2241C25.4634 32.2057 25.4708 32.1886 25.4855 32.1728C25.5003 32.1596 25.5193 32.153 25.5429 32.153H26.3153C26.336 32.153 26.3551 32.1596 26.3727 32.1728C26.3874 32.1886 26.3948 32.2057 26.3948 32.2241V32.4492C26.3948 32.4598 26.3993 32.4676 26.408 32.4729C26.4168 32.4782 26.4228 32.4756 26.4257 32.465C26.6082 32.2307 26.8524 32.1135 27.1584 32.1135ZM29.9392 32.1491C29.9598 32.1491 29.9775 32.1557 29.9922 32.1688C30.0098 32.182 30.0187 32.1991 30.0187 32.2201V32.781C30.0187 32.802 30.0098 32.8192 29.9922 32.8323C29.9775 32.8455 29.9598 32.852 29.9392 32.852H29.2948C29.2742 32.852 29.2639 32.8613 29.2639 32.8797V35.127C29.2639 35.148 29.255 35.1652 29.2374 35.1783C29.2227 35.1915 29.205 35.1981 29.1844 35.1981H28.4076C28.387 35.1981 28.3678 35.1915 28.3502 35.1783C28.3354 35.1652 28.3281 35.148 28.3281 35.127V32.8797C28.3281 32.8613 28.3164 32.852 28.2928 32.852H27.9044C27.8838 32.852 27.8646 32.8455 27.847 32.8323C27.8323 32.8192 27.8249 32.802 27.8249 32.781V32.2201C27.8249 32.1991 27.8323 32.182 27.847 32.1688C27.8646 32.1557 27.8838 32.1491 27.9044 32.1491H28.2928C28.3164 32.1491 28.3281 32.1385 28.3281 32.1175V31.9871C28.3281 31.7423 28.3708 31.5514 28.4561 31.4145C28.5385 31.2802 28.6739 31.1841 28.8622 31.1261C29.0506 31.0683 29.3095 31.0432 29.6391 31.0511H29.8907C29.9142 31.0511 29.9334 31.0577 29.948 31.0708C29.9628 31.0867 29.9701 31.1038 29.9701 31.1223V31.6001C29.9701 31.6211 29.9628 31.6383 29.948 31.6514C29.9334 31.6673 29.9142 31.6751 29.8907 31.6751H29.6699C29.517 31.6777 29.411 31.7054 29.3522 31.758C29.2933 31.8133 29.2639 31.9121 29.2639 32.0542V32.1175C29.2639 32.1385 29.2742 32.1491 29.2948 32.1491H29.9392ZM32.0623 35.2455C31.6916 35.2455 31.3737 35.1586 31.1089 34.9848C30.8441 34.811 30.6631 34.574 30.566 34.2739C30.5043 34.0896 30.4733 33.8881 30.4733 33.6696C30.4733 33.4379 30.5043 33.2286 30.566 33.0416C30.669 32.7494 30.8515 32.5203 31.1133 32.3545C31.3812 32.1886 31.7005 32.1057 32.0712 32.1057C32.4331 32.1057 32.7407 32.1873 32.9937 32.3505C33.2527 32.5164 33.4351 32.7454 33.541 33.0378C33.6116 33.2351 33.647 33.4419 33.647 33.6578C33.647 33.871 33.6161 34.0712 33.5543 34.2581C33.4543 34.5662 33.2733 34.8071 33.0113 34.9808C32.7495 35.1573 32.4331 35.2455 32.0623 35.2455ZM32.0623 34.5306C32.2095 34.5306 32.3331 34.4911 32.4331 34.4121C32.5332 34.3331 32.6068 34.2238 32.6538 34.0843C32.6891 33.9579 32.7068 33.8197 32.7068 33.6696C32.7068 33.5037 32.6891 33.3642 32.6538 33.251C32.6038 33.1167 32.5273 33.0113 32.4243 32.935C32.3243 32.8613 32.2021 32.8244 32.0579 32.8244C31.9049 32.8244 31.7799 32.8613 31.6828 32.935C31.5827 33.0113 31.5106 33.1167 31.4664 33.251C31.4312 33.3431 31.4135 33.4827 31.4135 33.6696C31.4135 33.8487 31.4297 33.9869 31.462 34.0843C31.5033 34.2238 31.5768 34.3331 31.6828 34.4121C31.7857 34.4911 31.9123 34.5306 32.0623 34.5306ZM35.9423 32.1135C36.1011 32.1135 36.2262 32.1411 36.3175 32.1964C36.3527 32.2123 36.366 32.2413 36.3571 32.2833L36.2204 32.9587C36.2144 33.0061 36.1835 33.0206 36.1277 33.0022C36.06 32.9811 35.9819 32.9706 35.8937 32.9706C35.8584 32.9706 35.8099 32.9745 35.748 32.9825C35.592 32.9956 35.4581 33.0482 35.3464 33.1404C35.2375 33.2325 35.1831 33.3563 35.1831 33.5116V35.127C35.1831 35.148 35.1742 35.1652 35.1565 35.1783C35.1419 35.1915 35.1242 35.1981 35.1036 35.1981H34.3267C34.3031 35.1981 34.2841 35.1915 34.2694 35.1783C34.2546 35.1652 34.2473 35.148 34.2473 35.127V32.2241C34.2473 32.2057 34.2546 32.1886 34.2694 32.1728C34.2841 32.1596 34.3031 32.153 34.3267 32.153H35.1036C35.1242 32.153 35.1419 32.1596 35.1565 32.1728C35.1742 32.1886 35.1831 32.2057 35.1831 32.2241V32.4492C35.1831 32.4598 35.186 32.4676 35.1919 32.4729C35.2007 32.4782 35.2081 32.4756 35.2139 32.465C35.3935 32.2307 35.6362 32.1135 35.9423 32.1135ZM40.5549 32.1057C40.8992 32.1057 41.1684 32.1978 41.3627 32.382C41.5568 32.5691 41.6539 32.831 41.6539 33.1681V35.127C41.6539 35.148 41.6466 35.1652 41.6318 35.1783C41.6172 35.1915 41.5981 35.1981 41.5745 35.1981H40.802C40.7785 35.1981 40.7593 35.1915 40.7447 35.1783C40.7299 35.1652 40.7226 35.148 40.7226 35.127V33.3497C40.7226 33.1891 40.6755 33.0614 40.5814 32.9666C40.4901 32.8719 40.3665 32.8244 40.2106 32.8244C40.0576 32.8244 39.9325 32.8719 39.8353 32.9666C39.7383 33.0614 39.6897 33.1878 39.6897 33.3457V35.127C39.6897 35.148 39.6824 35.1652 39.6676 35.1783C39.65 35.1915 39.6309 35.1981 39.6103 35.1981H38.8422C38.8187 35.1981 38.7995 35.1915 38.7849 35.1783C38.7701 35.1652 38.7628 35.148 38.7628 35.127V33.3497C38.7628 33.1917 38.7143 33.0641 38.6172 32.9666C38.52 32.8719 38.3935 32.8244 38.2375 32.8244C38.0963 32.8244 37.9786 32.8613 37.8844 32.935C37.7903 33.0113 37.7343 33.1167 37.7166 33.251V35.127C37.7166 35.148 37.7093 35.1652 37.6945 35.1783C37.677 35.1915 37.6578 35.1981 37.6372 35.1981H36.8603C36.8397 35.1981 36.8221 35.1915 36.8074 35.1783C36.7897 35.1652 36.7809 35.148 36.7809 35.127V32.2241C36.7809 32.2057 36.7897 32.1886 36.8074 32.1728C36.8221 32.1596 36.8397 32.153 36.8603 32.153H37.6372C37.6578 32.153 37.677 32.1596 37.6945 32.1728C37.7093 32.1886 37.7166 32.2057 37.7166 32.2241V32.4572C37.7166 32.4676 37.7211 32.4756 37.7299 32.4808C37.7387 32.4835 37.7476 32.4782 37.7564 32.465C37.9359 32.2254 38.2154 32.1057 38.5951 32.1057C38.8157 32.1057 39.01 32.1477 39.1777 32.232C39.3425 32.3136 39.4691 32.4321 39.5573 32.5875C39.5691 32.6111 39.5837 32.6111 39.6014 32.5875C39.6985 32.4242 39.831 32.3031 39.9988 32.2241C40.1635 32.1451 40.3489 32.1057 40.5549 32.1057ZM45.3219 33.3616C45.3485 33.5116 45.3573 33.6788 45.3485 33.8631C45.3455 33.9132 45.3175 33.9382 45.2646 33.9382H43.2165C43.19 33.9382 43.1812 33.9474 43.19 33.9659C43.2048 34.0448 43.2298 34.1238 43.265 34.2028C43.3798 34.424 43.6137 34.5346 43.9669 34.5346C44.2494 34.5319 44.4716 34.4293 44.6334 34.2265C44.651 34.2028 44.6716 34.1909 44.6952 34.1909C44.707 34.1909 44.7216 34.1988 44.7393 34.2146L45.2161 34.6333C45.2396 34.6543 45.2513 34.6728 45.2513 34.6886C45.2513 34.6965 45.2425 34.7123 45.2248 34.7359C45.0777 34.8992 44.8894 35.0243 44.6599 35.1112C44.4304 35.2007 44.1788 35.2455 43.9051 35.2455C43.5254 35.2455 43.2048 35.1691 42.9428 35.0164C42.681 34.8611 42.4926 34.6452 42.3779 34.3687C42.2837 34.1712 42.2366 33.9132 42.2366 33.5946C42.2366 33.376 42.2704 33.1838 42.3381 33.0179C42.4381 32.7388 42.6162 32.5164 42.8722 32.3505C43.1253 32.1846 43.4254 32.1017 43.7726 32.1017C44.214 32.1017 44.5687 32.2163 44.8364 32.4453C45.1042 32.6744 45.2661 32.9798 45.3219 33.3616ZM43.7815 32.8244C43.5019 32.8244 43.3181 32.9403 43.2298 33.172C43.2121 33.2247 43.1973 33.2878 43.1856 33.3616C43.1856 33.38 43.1959 33.3892 43.2165 33.3892H44.3642C44.3906 33.3892 44.3994 33.38 44.3906 33.3616C44.3671 33.2484 44.3554 33.1931 44.3554 33.1957C44.3171 33.0772 44.2479 32.985 44.1478 32.9192C44.0478 32.856 43.9257 32.8244 43.7815 32.8244ZM47.6216 32.1135C47.7806 32.1135 47.9057 32.1411 47.9968 32.1964C48.0322 32.2123 48.0454 32.2413 48.0366 32.2833L47.8997 32.9587C47.8939 33.0061 47.863 33.0206 47.807 33.0022C47.7393 32.9811 47.6614 32.9706 47.5731 32.9706C47.5378 32.9706 47.4892 32.9745 47.4275 32.9825C47.2686 32.9956 47.1346 33.0482 47.0257 33.1404C46.914 33.2325 46.858 33.3563 46.858 33.5116V35.127C46.858 35.148 46.8507 35.1652 46.836 35.1783C46.8212 35.1915 46.8022 35.1981 46.7786 35.1981H46.0061C45.9826 35.1981 45.9634 35.1915 45.9488 35.1783C45.934 35.1652 45.9267 35.148 45.9267 35.127V32.2241C45.9267 32.2057 45.934 32.1886 45.9488 32.1728C45.9634 32.1596 45.9826 32.153 46.0061 32.153H46.7786C46.8022 32.153 46.8212 32.1596 46.836 32.1728C46.8507 32.1886 46.858 32.2057 46.858 32.2241V32.4492C46.858 32.4598 46.8624 32.4676 46.8713 32.4729C46.8801 32.4782 46.8874 32.4756 46.8934 32.465C47.0728 32.2307 47.3156 32.1135 47.6216 32.1135Z" fill="#252530"/>
<path d="M29.2212 25.1992C29.2212 25.1808 29.2286 25.1637 29.2433 25.1479C29.258 25.1348 29.2757 25.1282 29.2963 25.1282H30.0731C30.0937 25.1282 30.1129 25.1348 30.1306 25.1479C30.1452 25.1637 30.1526 25.1808 30.1526 25.1992V29.204C30.1526 29.2251 30.1452 29.2422 30.1306 29.2554C30.1129 29.2686 30.0937 29.2751 30.0731 29.2751H29.2963C29.2757 29.2751 29.258 29.2686 29.2433 29.2554C29.2286 29.2422 29.2212 29.2251 29.2212 29.204V27.569C29.2212 27.5505 29.2095 27.5413 29.186 27.5413H27.7205C27.6999 27.5413 27.6896 27.5505 27.6896 27.569V29.204C27.6896 29.2251 27.6823 29.2422 27.6675 29.2554C27.6499 29.2686 27.6307 29.2751 27.6101 29.2751H26.8333C26.8127 29.2751 26.795 29.2686 26.7803 29.2554C26.7627 29.2422 26.7538 29.2251 26.7538 29.204V25.1992C26.7538 25.1808 26.7627 25.1637 26.7803 25.1479C26.795 25.1348 26.8127 25.1282 26.8333 25.1282H27.6101C27.6307 25.1282 27.6499 25.1348 27.6675 25.1479C27.6823 25.1637 27.6896 25.1808 27.6896 25.1992V26.7909C27.6896 26.8119 27.6999 26.8225 27.7205 26.8225H29.186C29.2095 26.8225 29.2212 26.8119 29.2212 26.7909V25.1992ZM31.3576 25.8864C31.2076 25.8864 31.0825 25.8417 30.9825 25.7522C30.8823 25.6653 30.8323 25.5547 30.8323 25.4204C30.8323 25.2808 30.8809 25.1677 30.9781 25.0808C31.0751 24.9939 31.2016 24.9504 31.3576 24.9504C31.5136 24.9504 31.6401 24.9939 31.7373 25.0808C31.8344 25.1677 31.8829 25.2808 31.8829 25.4204C31.8829 25.5547 31.8329 25.6653 31.7328 25.7522C31.6328 25.8417 31.5077 25.8864 31.3576 25.8864ZM30.9604 29.2751C30.9398 29.2751 30.9206 29.2686 30.9029 29.2554C30.8883 29.2422 30.8809 29.2251 30.8809 29.204V26.2972C30.8809 26.2761 30.8883 26.2591 30.9029 26.2459C30.9206 26.2327 30.9398 26.2261 30.9604 26.2261H31.7373C31.7578 26.2261 31.7755 26.2327 31.7902 26.2459C31.8079 26.2591 31.8167 26.2761 31.8167 26.2972V29.204C31.8167 29.2251 31.8079 29.2422 31.7902 29.2554C31.7755 29.2686 31.7578 29.2751 31.7373 29.2751H30.9604ZM34.6196 26.3011C34.6196 26.2827 34.6284 26.2656 34.6461 26.2498C34.6607 26.2366 34.6784 26.2301 34.699 26.2301H35.4759C35.4965 26.2301 35.5156 26.2366 35.5332 26.2498C35.548 26.2656 35.5553 26.2827 35.5553 26.3011V29.0026C35.5553 29.5186 35.3891 29.8873 35.0566 30.1085C34.724 30.3323 34.2943 30.4442 33.7677 30.4442C33.6117 30.4442 33.4395 30.4336 33.2512 30.4126C33.2071 30.4073 33.185 30.3823 33.185 30.3376L33.2114 29.7254C33.2114 29.6727 33.2424 29.6503 33.3041 29.6582C33.4631 29.682 33.6088 29.6938 33.7411 29.6938C34.0237 29.6938 34.2414 29.6398 34.3945 29.5318C34.5445 29.4186 34.6196 29.2409 34.6196 28.9986C34.6196 28.9855 34.6151 28.9776 34.6063 28.9749C34.5975 28.9723 34.5886 28.9762 34.5798 28.9868C34.4121 29.1474 34.1679 29.2277 33.8471 29.2277C33.5588 29.2277 33.2953 29.1658 33.057 29.0421C32.8157 28.9183 32.6436 28.7183 32.5405 28.4418C32.4759 28.2602 32.4434 28.0244 32.4434 27.7348C32.4434 27.4268 32.4832 27.1766 32.5626 26.9844C32.6538 26.7422 32.8098 26.5487 33.0306 26.4038C33.2512 26.2564 33.5087 26.1826 33.803 26.1826C34.1414 26.1826 34.4003 26.2735 34.5798 26.4551C34.5886 26.4631 34.5975 26.4657 34.6063 26.4631C34.6151 26.4604 34.6196 26.4538 34.6196 26.4433V26.3011ZM34.5666 28.2127C34.6019 28.0968 34.6196 27.9349 34.6196 27.7269C34.6196 27.6058 34.6151 27.5123 34.6063 27.4465C34.5975 27.3781 34.5828 27.3135 34.5622 27.253C34.521 27.1476 34.4547 27.0621 34.3635 26.9963C34.2724 26.9331 34.1575 26.9015 34.0192 26.9015C33.8869 26.9015 33.775 26.9331 33.6838 26.9963C33.5896 27.0621 33.5205 27.1476 33.4763 27.253C33.4145 27.3715 33.3836 27.5321 33.3836 27.7348C33.3836 27.956 33.4101 28.114 33.4631 28.2087C33.5013 28.3167 33.5705 28.4023 33.6705 28.4655C33.7706 28.5313 33.8883 28.5642 34.0237 28.5642C34.1649 28.5642 34.2826 28.5313 34.3768 28.4655C34.468 28.4023 34.5313 28.318 34.5666 28.2127ZM38.0006 26.1826C38.3538 26.1826 38.6378 26.2801 38.8526 26.475C39.0673 26.6672 39.1748 26.9291 39.1748 27.2609V29.204C39.1748 29.2251 39.1675 29.2422 39.1527 29.2554C39.1381 29.2686 39.1204 29.2751 39.0998 29.2751H38.3229C38.3023 29.2751 38.2831 29.2686 38.2655 29.2554C38.2508 29.2422 38.2435 29.2251 38.2435 29.204V27.4307C38.2435 27.2753 38.1935 27.1476 38.0933 27.0476C37.9963 26.9502 37.8653 26.9015 37.7005 26.9015C37.5387 26.9015 37.4078 26.9502 37.3077 27.0476C37.2076 27.1476 37.1576 27.2753 37.1576 27.4307V29.204C37.1576 29.2251 37.1502 29.2422 37.1356 29.2554C37.1208 29.2686 37.1017 29.2751 37.0781 29.2751H36.3057C36.2822 29.2751 36.263 29.2686 36.2483 29.2554C36.2336 29.2422 36.2262 29.2251 36.2262 29.204V25.1992C36.2262 25.1808 36.2336 25.1637 36.2483 25.1479C36.263 25.1348 36.2822 25.1282 36.3057 25.1282H37.0781C37.1017 25.1282 37.1208 25.1348 37.1356 25.1479C37.1502 25.1637 37.1576 25.1808 37.1576 25.1992V26.5104C37.1576 26.521 37.162 26.5289 37.1708 26.5342C37.1797 26.5368 37.1856 26.5342 37.1885 26.5263C37.371 26.2972 37.6417 26.1826 38.0006 26.1826Z" fill="#252530"/>
<path d="M27.0485 41.3125C26.8189 41.3125 26.6188 41.2796 26.4482 41.2138C26.2775 41.148 26.1451 41.0558 26.0509 40.9373C25.9597 40.8188 25.9141 40.6793 25.9141 40.5187V40.42C25.9141 40.4068 25.92 40.3949 25.9318 40.3844C25.9406 40.3765 25.9524 40.3725 25.967 40.3725H26.3599C26.3746 40.3725 26.3878 40.3765 26.3996 40.3844C26.4084 40.3949 26.4128 40.4068 26.4128 40.42V40.495C26.4128 40.616 26.4732 40.7162 26.5938 40.7951C26.7145 40.8768 26.8793 40.9175 27.0882 40.9175C27.2678 40.9175 27.403 40.8834 27.4943 40.8149C27.5855 40.7465 27.6311 40.6582 27.6311 40.5503C27.6311 40.4765 27.6061 40.4134 27.5561 40.3607C27.5061 40.3107 27.4355 40.2646 27.3442 40.2225C27.2501 40.1803 27.1103 40.1276 26.9249 40.0645C26.716 39.996 26.5467 39.9315 26.4173 39.871C26.2878 39.8104 26.1804 39.7275 26.0951 39.6222C26.0068 39.5194 25.9626 39.3904 25.9626 39.2351C25.9626 39.0033 26.0568 38.8204 26.2451 38.6861C26.4334 38.5518 26.685 38.4846 26.9999 38.4846C27.2207 38.4846 27.4163 38.5189 27.5869 38.5874C27.7547 38.6558 27.8856 38.752 27.9799 38.8757C28.074 38.9968 28.1211 39.1376 28.1211 39.2983V39.3654C28.1211 39.3786 28.1152 39.3904 28.1034 39.401C28.0947 39.4088 28.0828 39.4128 28.0681 39.4128H27.6708C27.6561 39.4128 27.6444 39.4088 27.6356 39.401C27.6238 39.3904 27.6179 39.3786 27.6179 39.3654V39.322C27.6179 39.1982 27.5619 39.0942 27.4502 39.01C27.3354 38.923 27.178 38.8796 26.9779 38.8796C26.816 38.8796 26.691 38.9099 26.6027 38.9705C26.5115 39.031 26.4659 39.1166 26.4659 39.2272C26.4659 39.3061 26.4894 39.3707 26.5365 39.4207C26.5836 39.4707 26.6542 39.5155 26.7483 39.555C26.8425 39.5972 26.9881 39.6498 27.1853 39.7129C27.3942 39.7841 27.5619 39.8485 27.6885 39.9065C27.8121 39.9644 27.9195 40.0447 28.0108 40.1475C28.099 40.2528 28.1432 40.3831 28.1432 40.5384C28.1432 40.7754 28.0445 40.9637 27.8474 41.1032C27.6532 41.2427 27.3869 41.3125 27.0485 41.3125ZM29.8999 38.5123C30.0853 38.5123 30.2486 38.5466 30.3899 38.6151C30.5311 38.6835 30.64 38.7795 30.7165 38.9033C30.796 39.0297 30.8356 39.1745 30.8356 39.3378C30.8356 39.4984 30.796 39.6406 30.7165 39.7644C30.6371 39.8881 30.5252 39.9829 30.3811 40.0487C30.2339 40.1172 30.0647 40.1513 29.8735 40.1513H29.1672C29.1524 40.1513 29.1451 40.1579 29.1451 40.1711V41.2335C29.1451 41.2466 29.1407 41.2572 29.1318 41.2651C29.1201 41.2756 29.1068 41.2809 29.0922 41.2809H28.6861C28.6713 41.2809 28.6596 41.2756 28.6508 41.2651C28.639 41.2572 28.6331 41.2466 28.6331 41.2335V38.5598C28.6331 38.5466 28.639 38.5347 28.6508 38.5242C28.6596 38.5163 28.6713 38.5123 28.6861 38.5123H29.8999ZM29.8249 39.7801C29.975 39.7801 30.0956 39.7406 30.1868 39.6616C30.278 39.5826 30.3236 39.4786 30.3236 39.3496C30.3236 39.2179 30.278 39.1113 30.1868 39.0297C30.0956 38.948 29.975 38.9073 29.8249 38.9073H29.1672C29.1524 38.9073 29.1451 38.9139 29.1451 38.927V39.7604C29.1451 39.7735 29.1524 39.7801 29.1672 39.7801H29.8249ZM33.0206 41.2809C32.9912 41.2809 32.9706 41.2691 32.9589 41.2453L32.3761 40.1079C32.3703 40.0973 32.3615 40.0922 32.3497 40.0922H31.82C31.8052 40.0922 31.7979 40.0987 31.7979 40.1119V41.2335C31.7979 41.2466 31.7921 41.2572 31.7802 41.2651C31.7715 41.2756 31.7596 41.2809 31.745 41.2809H31.3389C31.3242 41.2809 31.3124 41.2756 31.3036 41.2651C31.2918 41.2572 31.2859 41.2466 31.2859 41.2335V38.5636C31.2859 38.5505 31.2918 38.5399 31.3036 38.5321C31.3124 38.5215 31.3242 38.5163 31.3389 38.5163H32.5527C32.7323 38.5163 32.8912 38.5492 33.0295 38.6151C33.1678 38.6835 33.2751 38.7783 33.3517 38.8994C33.4282 39.0232 33.4665 39.1639 33.4665 39.322C33.4665 39.5036 33.4149 39.6576 33.312 39.7841C33.206 39.9131 33.0603 40.0026 32.875 40.0526C32.8691 40.0526 32.8646 40.0553 32.8617 40.0606C32.8587 40.0657 32.8587 40.071 32.8617 40.0763L33.4841 41.2256C33.49 41.2362 33.4929 41.244 33.4929 41.2493C33.4929 41.2703 33.4767 41.2809 33.4444 41.2809H33.0206ZM31.82 38.9113C31.8052 38.9113 31.7979 38.9178 31.7979 38.931V39.7169C31.7979 39.7301 31.8052 39.7367 31.82 39.7367H32.4821C32.6234 39.7367 32.7367 39.6985 32.822 39.6222C32.9102 39.5484 32.9544 39.4497 32.9544 39.326C32.9544 39.2022 32.9102 39.1021 32.822 39.0257C32.7367 38.9494 32.6234 38.9113 32.4821 38.9113H31.82ZM34.0447 41.2809C34.0299 41.2809 34.0167 41.2756 34.0049 41.2651C33.9962 41.2572 33.9917 41.2466 33.9917 41.2335V38.5636C33.9917 38.5505 33.9962 38.5399 34.0049 38.5321C34.0167 38.5215 34.0299 38.5163 34.0447 38.5163H34.4507C34.4655 38.5163 34.4772 38.5215 34.4861 38.5321C34.4978 38.5399 34.5038 38.5505 34.5038 38.5636V41.2335C34.5038 41.2466 34.4978 41.2572 34.4861 41.2651C34.4772 41.2756 34.4655 41.2809 34.4507 41.2809H34.0447ZM36.9446 38.5636C36.9446 38.5505 36.9506 38.5399 36.9623 38.5321C36.9712 38.5215 36.9829 38.5163 36.9976 38.5163H37.4037C37.4184 38.5163 37.4317 38.5215 37.4434 38.5321C37.4522 38.5399 37.4567 38.5505 37.4567 38.5636V41.2335C37.4567 41.2466 37.4522 41.2572 37.4434 41.2651C37.4317 41.2756 37.4184 41.2809 37.4037 41.2809H37.0108C36.9814 41.2809 36.9608 41.2703 36.9491 41.2493L35.6778 39.3851C35.6719 39.3773 35.6661 39.3733 35.6602 39.3733C35.6542 39.376 35.6513 39.3825 35.6513 39.3931L35.6602 41.2335C35.6602 41.2466 35.6542 41.2572 35.6425 41.2651C35.6337 41.2756 35.6219 41.2809 35.6072 41.2809H35.2011C35.1864 41.2809 35.1747 41.2756 35.1658 41.2651C35.1541 41.2572 35.1481 41.2466 35.1481 41.2335V38.5636C35.1481 38.5505 35.1541 38.5399 35.1658 38.5321C35.1747 38.5215 35.1864 38.5163 35.2011 38.5163H35.594C35.6234 38.5163 35.644 38.5268 35.6557 38.5479L36.9225 40.412C36.9285 40.42 36.9344 40.4225 36.9402 40.42C36.9462 40.42 36.9491 40.4147 36.9491 40.4041L36.9446 38.5636ZM39.1339 41.3125C38.9133 41.3125 38.719 41.2743 38.5513 41.198C38.3836 41.119 38.2541 41.0084 38.1629 40.8662C38.0717 40.724 38.026 40.5607 38.026 40.3765V39.4207C38.026 39.2338 38.0717 39.0692 38.1629 38.927C38.2541 38.7875 38.3836 38.6782 38.5513 38.5992C38.719 38.5229 38.9133 38.4846 39.1339 38.4846C39.3518 38.4846 39.5445 38.5229 39.7123 38.5992C39.877 38.6755 40.005 38.7795 40.0962 38.9113C40.1874 39.0429 40.2331 39.1916 40.2331 39.3575V39.3891C40.2331 39.4023 40.2287 39.4128 40.2199 39.4207C40.2081 39.4313 40.1948 39.4366 40.1801 39.4366H39.7784C39.7637 39.4366 39.7519 39.4313 39.7431 39.4207C39.7313 39.4128 39.7255 39.4023 39.7255 39.3891V39.3694C39.7255 39.2272 39.6711 39.11 39.5621 39.0179C39.4562 38.9257 39.3135 38.8796 39.1339 38.8796C38.9545 38.8796 38.8103 38.9283 38.7015 39.0257C38.5925 39.1205 38.5381 39.2469 38.5381 39.4049V40.3923C38.5381 40.5503 38.5955 40.6779 38.7102 40.7754C38.825 40.8702 38.9736 40.9175 39.156 40.9175C39.3326 40.9175 39.4724 40.8754 39.5754 40.7912C39.6754 40.7096 39.7255 40.5963 39.7255 40.4515V40.2066C39.7255 40.1935 39.7181 40.1869 39.7034 40.1869H39.1605C39.1458 40.1869 39.1325 40.1816 39.1208 40.1711C39.1119 40.1632 39.1075 40.1526 39.1075 40.1395V39.8472C39.1075 39.8341 39.1119 39.8235 39.1208 39.8157C39.1325 39.8051 39.1458 39.7998 39.1605 39.7998H40.1801C40.1948 39.7998 40.2081 39.8051 40.2199 39.8157C40.2287 39.8235 40.2331 39.8341 40.2331 39.8472V40.3528C40.2331 40.6556 40.1345 40.8912 39.9373 41.0597C39.7373 41.2282 39.4695 41.3125 39.1339 41.3125Z" fill="white"/>
<path d="M28.0556 48.4142C28.0468 48.422 28.0439 48.4299 28.0468 48.4379C28.0527 48.4457 28.0616 48.4497 28.0733 48.4497H29.8081C29.8286 48.4497 29.8463 48.4563 29.861 48.4695C29.8787 48.4826 29.8875 48.4983 29.8875 48.5168V49.0737C29.8875 49.0922 29.8787 49.1079 29.861 49.1211C29.8463 49.1342 29.8286 49.1408 29.8081 49.1408H26.9301C26.9066 49.1408 26.8874 49.1342 26.8727 49.1211C26.858 49.1079 26.8506 49.0922 26.8506 49.0737V48.5445C26.8506 48.5102 26.8639 48.4813 26.8904 48.4576C27.0993 48.2759 27.3126 48.0771 27.5304 47.8612C27.7481 47.6453 27.885 47.5111 27.9408 47.4583C28.0586 47.332 28.1793 47.2108 28.3028 47.095C28.6913 46.7106 28.8854 46.4249 28.8854 46.238C28.8854 46.1037 28.8325 45.9931 28.7266 45.9062C28.6207 45.8219 28.4823 45.7798 28.3117 45.7798C28.141 45.7798 28.0027 45.8219 27.8968 45.9062C27.7879 45.9931 27.7335 46.1077 27.7335 46.2499V46.392C27.7335 46.4105 27.7261 46.4262 27.7114 46.4394C27.6967 46.4525 27.679 46.4591 27.6584 46.4591H26.9037C26.883 46.4591 26.8654 46.4525 26.8506 46.4394C26.8329 46.4262 26.8242 46.4105 26.8242 46.392V46.1234C26.8389 45.9181 26.9124 45.735 27.0449 45.5744C27.1772 45.4165 27.3524 45.2954 27.5701 45.2111C27.7908 45.1269 28.038 45.0847 28.3117 45.0847C28.6148 45.0847 28.8781 45.136 29.1018 45.2388C29.3255 45.3388 29.4976 45.4744 29.6182 45.6456C29.7418 45.8193 29.8036 46.0102 29.8036 46.2182C29.8036 46.3788 29.758 46.5434 29.6667 46.7119C29.5785 46.8805 29.4446 47.0621 29.2651 47.257C29.1327 47.4043 28.99 47.5518 28.8369 47.6993C28.6839 47.8441 28.4559 48.0534 28.1528 48.3273L28.0556 48.4142ZM31.9664 49.2041C31.4957 49.2041 31.1249 49.0869 30.8541 48.8526C30.5805 48.6182 30.4436 48.2983 30.4436 47.8928V46.3802C30.4436 45.9825 30.5805 45.6679 30.8541 45.4362C31.1249 45.2019 31.4957 45.0847 31.9664 45.0847C32.4343 45.0847 32.8066 45.2019 33.0832 45.4362C33.3568 45.6679 33.4937 45.9825 33.4937 46.3802V47.8928C33.4937 48.2983 33.3568 48.6182 33.0832 48.8526C32.8066 49.0869 32.4343 49.2041 31.9664 49.2041ZM31.9664 48.5129C32.1577 48.5129 32.3093 48.4602 32.4211 48.3549C32.5359 48.2496 32.5932 48.1087 32.5932 47.9323V46.3565C32.5932 46.1827 32.5359 46.0431 32.4211 45.9378C32.3093 45.8325 32.1577 45.7798 31.9664 45.7798C31.7781 45.7798 31.628 45.8325 31.5163 45.9378C31.4015 46.0431 31.3441 46.1827 31.3441 46.3565V47.9323C31.3441 48.1087 31.4015 48.2496 31.5163 48.3549C31.628 48.4602 31.7781 48.5129 31.9664 48.5129ZM35.2858 48.4142C35.277 48.422 35.2755 48.4299 35.2814 48.4379C35.2843 48.4457 35.2932 48.4497 35.3078 48.4497H37.0425C37.0631 48.4497 37.0808 48.4563 37.0955 48.4695C37.1102 48.4826 37.1176 48.4983 37.1176 48.5168V49.0737C37.1176 49.0922 37.1102 49.1079 37.0955 49.1211C37.0808 49.1342 37.0631 49.1408 37.0425 49.1408H34.1602C34.1396 49.1408 34.122 49.1342 34.1072 49.1211C34.0925 49.1079 34.0852 49.0922 34.0852 49.0737V48.5445C34.0852 48.5102 34.097 48.4813 34.1205 48.4576C34.3324 48.2759 34.5457 48.0771 34.7605 47.8612C34.9783 47.6453 35.1151 47.5111 35.171 47.4583C35.2916 47.332 35.4138 47.2108 35.5374 47.095C35.9258 46.7106 36.12 46.4249 36.12 46.238C36.12 46.1037 36.067 45.9931 35.9611 45.9062C35.8523 45.8219 35.7125 45.7798 35.5418 45.7798C35.3711 45.7798 35.2328 45.8219 35.1268 45.9062C35.021 45.9931 34.9679 46.1077 34.9679 46.2499V46.392C34.9679 46.4105 34.9606 46.4262 34.9459 46.4394C34.9312 46.4525 34.9121 46.4591 34.8885 46.4591H34.1337C34.1131 46.4591 34.0955 46.4525 34.0808 46.4394C34.066 46.4262 34.0587 46.4105 34.0587 46.392V46.1234C34.0704 45.9181 34.1426 45.735 34.2749 45.5744C34.4074 45.4165 34.584 45.2954 34.8046 45.2111C35.0254 45.1269 35.2711 45.0847 35.5418 45.0847C35.8448 45.0847 36.1083 45.136 36.3319 45.2388C36.5584 45.3388 36.7321 45.4744 36.8527 45.6456C36.9734 45.8193 37.0337 46.0102 37.0337 46.2182C37.0337 46.3788 36.9896 46.5434 36.9013 46.7119C36.81 46.8805 36.6747 47.0621 36.4952 47.257C36.3628 47.4043 36.2201 47.5518 36.067 47.6993C35.914 47.8441 35.686 48.0534 35.3828 48.3273L35.2858 48.4142ZM38.3005 45.1479C38.3241 45.1373 38.3564 45.1322 38.3976 45.1322H39.1745C39.1951 45.1322 39.2128 45.1387 39.2275 45.1519C39.2422 45.165 39.2495 45.1809 39.2495 45.1993V49.0737C39.2495 49.0922 39.2422 49.1079 39.2275 49.1211C39.2128 49.1342 39.1951 49.1408 39.1745 49.1408H38.4241C38.4035 49.1408 38.3859 49.1342 38.3712 49.1211C38.3535 49.1079 38.3447 49.0922 38.3447 49.0737V45.9338C38.3447 45.9259 38.3418 45.9181 38.3358 45.9102C38.327 45.9022 38.3182 45.9009 38.3093 45.9062L37.6738 46.0603L37.6473 46.0641C37.609 46.0641 37.5899 46.0431 37.5899 46.001L37.5722 45.5113C37.5722 45.4718 37.5913 45.4441 37.6296 45.4284L38.3005 45.1479Z" fill="#252530"/>
</g>
</g>
<defs>
<clipPath id="clip0_12_857">
<rect width="42" height="50" fill="white" transform="translate(12.4219 10.594)"/>
</clipPath>
</defs>
</svg>
